<?xml version="1.0" encoding="utf-8"?>
<!-- Generator: Adobe Illustrator 27.2.0, SVG Export Plug-In . SVG Version: 6.00 Build 0)  -->
<svg version="1.1" id="Layer_1" xmlns="http://www.w3.org/2000/svg" xmlns:xlink="http://www.w3.org/1999/xlink" x="0px" y="0px"
	 viewBox="0 0 1488 637" style="enable-background:new 0 0 1488 637;" xml:space="preserve">
<style type="text/css">
	.st0{font-family:'ArialMT';}
	.st1{font-size:36px;}
	.st2{fill:#9FB2A6;fill-opacity:0.502;}
	.st3{fill:#A0B3A5;fill-opacity:0.502;}
	.st4{fill:#A4B6A4;fill-opacity:0.502;}
	.st5{fill:#F6E687;fill-opacity:0.502;}
	.st6{fill:#F0D48D;fill-opacity:0.502;}
	.st7{fill:#E5B197;fill-opacity:0.502;}
	.st8{fill:#E4B098;fill-opacity:0.502;}
	.st9{fill:#E4AE98;fill-opacity:0.502;}
	.st10{fill:#E3AB99;fill-opacity:0.502;}
	.st11{fill:none;stroke:#3E644D;stroke-width:4;stroke-linejoin:round;stroke-miterlimit:10;}
	.st12{fill:none;stroke:#42684B;stroke-width:4;stroke-linejoin:round;stroke-miterlimit:10;}
	.st13{fill:none;stroke:#496D48;stroke-width:4;stroke-linejoin:round;stroke-miterlimit:10;}
	.st14{fill:none;stroke:#EECC0F;stroke-width:4;stroke-linejoin:round;stroke-miterlimit:10;}
	.st15{fill:none;stroke:#E2A91A;stroke-width:4;stroke-linejoin:round;stroke-miterlimit:10;}
	.st16{fill:none;stroke:#CA632F;stroke-width:4;stroke-linejoin:round;stroke-miterlimit:10;}
	.st17{fill:none;stroke:#C96030;stroke-width:4;stroke-linejoin:round;stroke-miterlimit:10;}
	.st18{fill:none;stroke:#C85D31;stroke-width:4;stroke-linejoin:round;stroke-miterlimit:10;}
	.st19{fill:none;stroke:#C65733;stroke-width:4;stroke-linejoin:round;stroke-miterlimit:10;}
	.st20{fill:none;stroke:#262626;stroke-linecap:square;stroke-linejoin:round;stroke-miterlimit:10;}
	.st21{fill:#262626;}
	.st22{font-size:24px;}
	.st23{font-size:30px;}
	.st24{font-size:18px;}
	.st25{fill:#FFFFFF;}
	.st26{fill:#9CB0A7;fill-opacity:0.502;}
	.st27{fill:#B7C59C;fill-opacity:0.502;}
	.st28{fill:#CDD793;fill-opacity:0.502;}
	.st29{fill:#F9EF84;fill-opacity:0.502;}
	.st30{fill:#EFCF8E;fill-opacity:0.502;}
	.st31{fill:#EBC392;fill-opacity:0.502;}
	.st32{fill:#E3AA99;fill-opacity:0.502;}
	.st33{fill:none;stroke:#39604F;stroke-width:4;stroke-linejoin:round;stroke-miterlimit:10;}
	.st34{fill:none;stroke:#40664C;stroke-width:4;stroke-linejoin:round;stroke-miterlimit:10;}
	.st35{fill:none;stroke:#6E8B3A;stroke-width:4;stroke-linejoin:round;stroke-miterlimit:10;}
	.st36{fill:none;stroke:#9CB027;stroke-width:4;stroke-linejoin:round;stroke-miterlimit:10;}
	.st37{fill:none;stroke:#F4DE0A;stroke-width:4;stroke-linejoin:round;stroke-miterlimit:10;}
	.st38{fill:none;stroke:#DF9F1D;stroke-width:4;stroke-linejoin:round;stroke-miterlimit:10;}
	.st39{fill:none;stroke:#D78724;stroke-width:4;stroke-linejoin:round;stroke-miterlimit:10;}
	.st40{fill:none;stroke:#C65633;stroke-width:4;stroke-linejoin:round;stroke-miterlimit:10;}
	.st41{fill-rule:evenodd;clip-rule:evenodd;}
</style>
<g transform="translate(344.0003,79.5)">
	<text transform="matrix(1 0 0 1 -80.5 -8)" class="st0 st1">Monkey V</text>
</g>
<g>
	<path class="st2" d="M310.2,448.4l4.5-6.6l4.5-6.9l4.5-9.6l4.5-5.7l4.5-9.4l4.5-12.9l4.5-13.5l-4.5,8.2l-4.5,7.3l-4.5,9.5l-4.5,4
		l-4.5,6l-4.5,2.8l-4.5,5.3l-4.5,1.3l-4.5,1.4l-4.5-3.3l-4.5-5.1l-4.5-1.9l-4.5-3.8l-4.5-5.9l-4.5-2.1l-4.5-11.7l-4.5-4.3l-4.5-5
		l-4.5-14.2l-4.5-8.3l-4.5-9.8l-4.5-15.5l-4.5-8.9l-4.5-9.5l-4.5-12.3l-4.5-32.1h-4.5l-4.5-2.4h-4.5h-4.5l-4.5-3.6V334l4.5,7.7h4.5
		h4.5l4.5,10h4.5l4.5-6.4l4.5,13.2l4.5,6.9l4.5,11.3l4.5,12.9l4.5,14l4.5,11.3l4.5,6.2l4.5,10.9l4.5,7.2l4.5,9l4.5,4.2l4.5,3.2
		l4.5,5.2l4.5-2.4l4.5,1.2l4.5-0.3l4.5-4.4L310.2,448.4z M359.8,331.1l-4.5,15.9l-4.5,9.9l-4.5,15.5l-4.5,11.7l4.5-7.6l4.5-10.2
		l4.5-7.1l4.5-10l4.5-6.2l4.5-8.9l4.5-10.3l4.5-4.3l4.5-7.7v-50.3l-4.5,30.5l-4.5,7.3l-4.5,16.3l-4.5,6.8L359.8,331.1z"/>
	<path class="st3" d="M292.2,434.6l4.5-0.6l4.5-0.6l4.5-2.9l4.5-3.9l4.5-2.6l4.5-4.6l4.5-7.9l4.5-9.3l4.5-7.6l4.5-7.9l4.5-2.8
		l4.5-5.1l4.5-6.5l4.5-10.8l4.5-8.4l4.5-9.5l4.5-18.4l4.5-7.8l4.5-8.1l4.5-3.5l4.5-8.5l4.5,2.3l4.5-11.6l4.5-5.1l4.5,16.9h4.5V187.5
		l-4.5,31.9l-4.5,16.9l-4.5,9.3l-4.5,18.9l-4.5,4.3l-4.5,9.2l-4.5,10.9l-4.5,4.2l-4.5,9.4l-4.5,29.4l-4.5,11l-4.5,9.2l-4.5,10.1
		l-4.5,9.7l-4.5,11.9l-4.5-1.6l-4.5,4.2l-4.5,5.1l-4.5,7.3l-4.5,3.8l-4.5,1.1l-4.5,1.3l-4.5-0.6l-4.5,0.2l-4.5-0.9l-4.5-1.2
		l-4.5-4.6l-4.5-7.2l-4.5-8.1l-4.5-5.7l-4.5-6.6l-4.5-8.9l-4.5-9.1l-4.5-8.8l-4.5-10.1l-4.5-7.3l-4.5-11.2l-4.5-16.4l-4.5-7.7
		l-4.5-7.9l-4.5-62.4h-4.5h-4.5h-4.5v123.4h4.5l4.5,20.4h4.5l4.5-28.2l4.5-3.6l4.5,10.9l4.5,7.3l4.5,9.2l4.5,11.3l4.5,8.7l4.5,8.5
		l4.5,9.5l4.5,9.5l4.5,9.1l4.5,6.9l4.5,4.7l4.5,3.8L292.2,434.6z"/>
	<path class="st4" d="M310.2,426.5l4.5-3.3l4.5-0.4l4.5-4.7l4.5-6.1l4.5-8l4.5-11l4.5-8.9l-4.5,2.7l-4.5,9.2l-4.5,7l-4.5,1.6l-4.5,1
		l-4.5-1l-4.5,0.8l-4.5-2.4l-4.5-5.8l-4.5-6.4l-4.5-4.5l-4.5-4.4l-4.5-5.2l-4.5-12.6l-4.5-9.1l-4.5-5.8l-4.5-5.5l-4.5-10.1l-4.5-11
		l-4.5,4.3l-4.5-3.1l-4.5-26.7l-4.5-2.3l-4.5-2.8l-4.5-2.2l-4.5-9.9v39.8l4.5-6.3l4.5,14.4l4.5,7.3l4.5,6.3l4.5,10.3l4.5-4.7
		l4.5,18.6l4.5,16.3l4.5,4.3l4.5,6l4.5,9.5l4.5,8l4.5,7.6l4.5,2.1l4.5,2.5l4.5,4.7l4.5,1.6l4.5-0.9L310.2,426.5z M418.2,246.5v-9.2
		h-4.5l-4.5-1.4l-4.5,15.9l-4.5-10.8l-4.5,26.6l-4.5,19l-4.5,2.4l-4.5,9l-4.5,11.2l-4.5,10.3l-4.5,10.3l-4.5,3.9l-4.5,10l-4.5,8.8
		l-4.5,10.7l-4.5,8.1l-4.5,12.7l4.5-7.2l4.5-7.9l4.5-6.9l4.5-5.7l4.5-4.6l4.5-7.2l4.5-7.9l4.5-9.4l4.5-12l4.5-9l4.5-2.5l4.5-11.1
		l4.5-3.7l4.5-10.8l4.5-2.4l4.5-1.4L418.2,246.5z"/>
	<path class="st5" d="M287.8,309l-4.5-1.5l-4.5,4.5l-4.5-3.7l-4.5-17.3l-4.5-19.8v61.4l4.5-3.3l4.5,10.5l4.5-9.4l4.5,19.3l4.5,2
		l4.5-2.7l4.5,6.8l4.5,8.4l4.5,4.1l4.5,1.2l4.5,1.9l4.5-1.9l4.5,8.3l4.5,2.7l4.5,1.8l4.5,2.6l4.5-0.9l4.5,2.5l4.5,1.9l4.5,2l4.5,1.8
		l4.5-2.7l4.5-7l4.5-1.6l4.5-3.4l4.5-3.5l4.5-7.1l4.5-4.6l4.5-6.5l4.5-10.4l4.5-6l4.5-3.8l4.5-7.2l4.5-5.8l4.5-2.1l4.5-10.9l4.5-8.1
		l4.5-11.5l4.5-15.5l4.5-0.8l4.5-8.5l4.5-36.7l4.5-3.5h4.5l4.5-7.2l4.5,3.7v-80.1l-4.5,29.5l-4.5,23.8h-4.5l-4.5,4.4l-4.5,21.8
		l-4.5,13.1l-4.5,10l-4.5,16.8l-4.5,12.8l-4.5,3.5l-4.5,8.2l-4.5,8.3l-4.5,9.2l-4.5,6.9l-4.5,4.6l-4.5,3.4l-4.5,15.1l-4.5,4.1
		l-4.5,5.2l-4.5,7.1l-4.5,4.2l-4.5,8.6l-4.5-0.8l-4.5,9.6l-4.5,5.3l-4.5,0.4l-4.5-3l-4.5,6.4l-4.5,4.1l-4.5-4l-4.5-7.9l-4.5-4.6
		l-4.5-2.4l-4.5-11.8l-4.5,4.3l-4.5-2.3l-4.5-5l-4.5-6.8l-4.5-11.4l-4.5-25.2L287.8,309z"/>
	<path class="st6" d="M301.2,347l4.5,4.6l4.5,0.9l4.5-0.4l4.5,6.9l4.5,7.8l4.5,6.7l4.5,1.6l4.5,5.3l4.5,3.6l4.5,6.2l4.5,3.1l4.5,7.9
		l4.5,0.7l4.5,1.5l4.5,2l4.5-4.3l4.5,1l4.5-3.3l4.5-2.2l4.5-1.3l4.5-6.7l4.5-6.9l4.5-5.9l4.5-11.1l4.5-9.9l4.5-2.3l4.5-12.1l4.5-9
		l4.5-10l4.5-2.2l4.5,1.2l4.5-11.4l4.5-18.2l4.5-1.4l4.5-2.6l4.5-25.1l4.5-9.6h4.5l4.5-25.1v-64l-4.5,20.5h-4.5l-4.5,17l-4.5,19.1
		l-4.5,3.2l-4.5,15.6l-4.5,8.8l-4.5,5.9l-4.5,12.1l-4.5,10.8l-4.5,10.7l-4.5,11.3l-4.5,11.4l-4.5,4.8l-4.5,10.5l-4.5,10.7l-4.5,5.8
		l-4.5,10.7l-4.5,9.7l-4.5,2l-4.5,4l-4.5,5.8l-4.5,5.5l-4.5,4.6l-4.5,0l-4.5,2.8l-4.5,2l-4.5-3.1l-4.5-0.9l-4.5-0.2l-4.5-8.1
		l-4.5-6.9l-4.5-6.1l-4.5-13.6l-4.5-7.7l-4.5-12.4l-4.5-0.9l-4.5-5.7l-4.5-6.9l-4.5-13.9l-4.5,4.4l-4.5-12.3l-4.5-31.7l-4.5-19.5
		h-4.5v70.6l4.5,8.3l4.5,8.5l4.5,2.6l4.5,5.2l4.5,1L301.2,347z"/>
	<path class="st7" d="M346.2,395.6l4.5,7.7l4.5,8.7l4.5,11.9l4.5,7.8l4.5,6.6l4.5,7.6l4.5,0.8l4.5,0.7l4.5-2l4.5,1.2l4.5,0.1l4.5-3
		l4.5,1.5l4.5-6.5l4.5-2.2l4.5-3.5l4.5-5.7l4.5-9.1l4.5-9.4l4.5-10l4.5-15.2l4.5-5.8l4.5-0.4l4.5-16.2l4.5-11.7l4.5-10.2l4.5-17.7
		l4.5,0.6l4.5-13.4l4.5-8.6l4.5,5.7h4.5l4.5-24.3h4.5h4.5h4.5h4.5l4.5-2.9v-43.6l-4.5,43.6h-4.5h-4.5h-4.5h-4.5h-4.5h-4.5l-4.5,5.7
		l-4.5,5.1l-4.5,7.6l-4.5,0.6l-4.5,17.7l-4.5,1.6l-4.5,9.4l-4.5,22.3l-4.5,4.8l-4.5,3.9l-4.5,17l-4.5,1.4l-4.5,5.3l-4.5,12.3
		l-4.5,4.3l-4.5,3.3l-4.5,6.7l-4.5,7.8l-4.5,0.5l-4.5,5.5l-4.5,2.1l-4.5-0.3l-4.5,1.1l-4.5,0.7l-4.5-2.4l-4.5-4.7l-4.5-2.4l-4.5-6.3
		l-4.5-9.1l-4.5-3.8l-4.5-7.6l-4.5-4.6L346.2,395.6z M337.2,375.5l-4.5-13.3l-4.5-2.2l-4.5-17.9l-4.5-4.1l-4.5-9.9l-4.5-11.6
		l-4.5-3.5l-4.5-12.7v53.6l4.5-2.3l4.5-4.8l4.5,5.8l4.5,4.1l4.5,2.9l4.5,9.8l4.5,2.5l4.5,8.1l4.5,4.1L337.2,375.5z"/>
	<path class="st8" d="M368.8,430.8l4.5,4.7l4.5,0.6l4.5,0.6l4.5,1.6l4.5,0.3l4.5-1.8l4.5-5.8l4.5-4.2l4.5-0.9l4.5-3.4l4.5-2.7
		l4.5-2.5l4.5-8.9l4.5-9.7l4.5-7l4.5-5.2l4.5-5.2l4.5-3.9l4.5-4l4.5-7.8l4.5-3.4l4.5-5.9l4.5-3.1l4.5-29.2v-44.3l-4.5,24.7l-4.5-3.1
		l-4.5,1.3l-4.5,3l-4.5,9.2l-4.5,16.9l-4.5,2.6l-4.5,6.3l-4.5,11.6l-4.5,3.5l-4.5,11.4l-4.5,9.2l-4.5,5.4l-4.5,9.5l-4.5,7.6
		l-4.5,4.1l-4.5,6.1l-4.5,5.6l-4.5,5.8l-4.5,0.2l-4.5-1.7l-4.5,0.6l-4.5,2.5l-4.5-2.5l-4.5-7.7l-4.5-7.8l-4.5-5l-4.5-6.3l-4.5-4.8
		l-4.5-3.8l4.5,7l4.5,6.9l4.5,10.4l4.5,7.2l4.5,6.9L368.8,430.8z M332.8,369l4.5,8.2l4.5,6.8l-4.5-14.2l-4.5-9.8l-4.5-7.4l-4.5-11
		l-4.5-5.6l-4.5-1.6l-4.5-4.7l-4.5-7.8l-4.5-0.4l-4.5-22.6v38.3l4.5,15.4l4.5-1.4l4.5,5.3l4.5,3.3l4.5,2l4.5,0.2l4.5,4.6L332.8,369z
		"/>
	<path class="st9" d="M350.8,401.2l-4.5-10.5l-4.5-6.7l4.5,14.1l4.5,14.3l4.5,3.2l4.5,7.6l4.5,12.1l4.5,5.4l4.5,8.3l4.5,7.4l4.5,2.3
		l4.5,4.7l4.5,0.5l4.5-3.9l4.5,0.8l4.5-4.8l4.5,1.6l4.5-7l4.5-7.2l4.5-6.8l4.5-1.4l4.5-8.4l4.5-8.9l4.5-13.7l4.5-0.4l4.5-7.8
		l4.5-7.3l4.5-4.5l4.5-17l4.5-6.6l4.5-8.1l4.5-7.3l4.5-14.1l4.5,9.1l4.5-4.7l4.5-15.8l4.5-7.3v-106l-4.5,27.6l-4.5,11.1l-4.5,7.4
		l-4.5,17l-4.5,18.7l-4.5,13.5l-4.5,9.5l-4.5,6.3l-4.5,5.5l-4.5,4.1l-4.5,15.9l-4.5,10.9l-4.5,8.2l-4.5,17.5l-4.5,7.8l-4.5,9.1
		l-4.5,5.5l-4.5,6.4l-4.5,6.6l-4.5,8.9l-4.5,1.7l-4.5,6.5l-4.5,3.1l-4.5,3.1l-4.5,2.6l-4.5-1.6l-4.5-4.1l-4.5-4.1l-4.5-6.4l-4.5-6.1
		l-4.5-7.8l-4.5-5.6L350.8,401.2z M323.8,358.6l4.5,2.9l4.5,8l4.5,8.9l4.5,5.6l-4.5-10.2l-4.5-13.1l-4.5-8l-4.5-5.1l-4.5-10.5
		l-4.5-1v9.7l4.5-0.1L323.8,358.6z"/>
	<path class="st10" d="M355.2,408.2l-4.5-5.3l-4.5-8.7l-4.5-10.2l4.5,17l4.5,12.7l4.5,5.5l4.5,9.2l4.5,4.7l4.5,6.3l4.5,2.7l4.5,4.4
		l4.5,4.1l4.5,0.1l4.5-1.5l4.5-1.6l4.5-2.4l4.5-3l4.5-5.3l4.5-4.9l4.5-0.7l4.5,0.5l4.5-5.9l4.5-5.2l4.5-8.9l4.5-1.9l4.5-6.3l4.5-7.2
		l4.5-6.5l4.5-3.1l4.5-8.1l4.5-15.7l4.5-1.6l4.5-12.9l4.5-8.1h4.5l4.5-3.6l4.5,9.5l4.5-15.7l4.5,4.1l4.5-47.8v-67l-4.5,7.3l-4.5,4.1
		l-4.5,25.7l-4.5,25.6l-4.5,7.6h-4.5l-4.5,6.1l-4.5,15.5l-4.5,4.6l-4.5-4.7l-4.5,17.7l-4.5,10.6l-4.5,10.6l-4.5,12.5l-4.5,10.9
		l-4.5,5.1l-4.5,9.9l-4.5-3.3l-4.5,8.4l-4.5,3.6l-4.5,2.2l-4.5,4.2l-4.5,10.3l-4.5,7.5l-4.5,2.9l-4.5,1.2l-4.5,3l-4.5,2.7l-4.5-0.4
		l-4.5-3.7l-4.5-1.1l-4.5-5l-4.5-5.4L355.2,408.2z M332.8,372.1l4.5,5.8l4.5,6.1l-4.5-12.8l-4.5-8.9l-4.5-9.6l-4.5-3.7l-4.5-13.6
		l-4.5-19l-4.5-8.9l-4.5-6.1V320l4.5,7.5l4.5,5.6l4.5,14.9l4.5,9.1l4.5,5.8L332.8,372.1z"/>
</g>
<g>
	<path class="st11" d="M202.2,302.2l4.5,5.6h4.5h4.5l4.5,6.2h4.5l4.5,12.9l4.5,12.7l4.5,8.2l4.5,10.1l4.5,14.2l4.5,11.9l4.5,9.8
		l4.5,10.2l4.5,8l4.5,5.7l4.5,10.4l4.5,3.2l4.5,4.5l4.5,4.5l4.5-0.3l4.5,3.1l4.5,1.5l4.5-2.9l4.5-3.9l4.5-5.9l4.5-4.8l4.5-7.8
		l4.5-4.8l4.5-9.5l4.5-10.1l4.5-10.9l4.5-9.6l4.5-12.8l4.5-8.5l4.5-12.9l4.5-7.6l4.5-7.9l4.5-13.3l4.5-5.8l4.5-19.1"/>
	<path class="st12" d="M211.2,282.2h4.5l4.5,10.2h4.5l4.5,17.1l4.5,2.1l4.5,9.3l4.5,11.9l4.5,10.2l4.5,9.3l4.5,9.4l4.5,8.7l4.5,9.3
		l4.5,9.2l4.5,7.9l4.5,6.3l4.5,6.4l4.5,5.5l4.5,3.7l4.5,0.3l4.5,0.2l4.5-1.5l4.5-1.6l4.5-1.9l4.5-2.8l4.5-5.8l4.5-8.3l4.5-6.4l4.5-6
		l4.5-0.6l4.5-8.5l4.5-8.1l4.5-10.5l4.5-8.8l4.5-10.3l4.5-23.9l4.5-8.6l4.5-6.2l4.5-7.2l4.5-8.9l4.5-1l4.5-15.2l4.5-7.2h4.5l4.5-16"
		/>
	<path class="st13" d="M224.8,299.8l4.5,1.8l4.5,8.3l4.5,5l4.5,4.3l4.5,18.5l4.5-0.8l4.5,7.1l4.5,13.7l4.5,7.2l4.5,5.8l4.5,7.7
		l4.5,8.5l4.5,10.1l4.5,3.6l4.5,3.4l4.5,4.6l4.5,4l4.5,2.5l4.5,0.7l4.5-2l4.5,0.3l4.5-2.9l4.5-3.8l4.5-7.5l4.5-10.1l4.5-5.8l4.5-10
		l4.5-8l4.5-8.8l4.5-7.3l4.5-7.3l4.5-5.6l4.5-9.1l4.5-9.9l4.5-11.6l4.5-9l4.5-2.4l4.5-15.1l4.5-15.2h4.5l4.5-9.2h4.5l4.5-13.9"/>
	<path class="st14" d="M265.2,301.9l4.5,8.3l4.5,13.9l4.5-2.9l4.5,7.4l4.5,1.7l4.5-2.4l4.5,16l4.5,9.9l4.5,5.5l4.5,3.1l4.5,2.1
		l4.5-3.1l4.5,10.1l4.5,2.6l4.5,3.2l4.5,5.2l4.5,1.5l4.5-0.8l4.5-2.2l4.5,2.5l4.5,0.7l4.5-4l4.5-8.3l4.5-0.4l4.5-6l4.5-3.9l4.5-7.1
		l4.5-4.9l4.5-5.3l4.5-12.8l4.5-4.7l4.5-4.2l4.5-7l4.5-7.5l4.5-5.2l4.5-9.6l4.5-5.8l4.5-12.1l4.5-16.1l4.5-5.4l4.5-10.8l4.5-29.2
		l4.5-3.9h4.5l4.5-15.5l4.5-12.9"/>
	<path class="st15" d="M274.2,278.1l4.5,4.1l4.5,14l4.5,17.2l4.5,8.8l4.5-1.7l4.5,10.9l4.5,5.8l4.5,3.3l4.5,0.3l4.5,9.7l4.5,7.8
		l4.5,10.1l4.5,3.9l4.5,6.1l4.5,5.9l4.5,3.2l4.5,2l4.5,5.5l4.5-0.6l4.5-0.7l4.5,1l4.5-4.4l4.5-2.2l4.5-4.6l4.5-3.1l4.5-1.6l4.5-8.2
		l4.5-8.8l4.5-5.8l4.5-10.9l4.5-10.2l4.5-3.6l4.5-11.7l4.5-10.1l4.5-10.4l4.5-6.5l4.5-5.5l4.5-8.7l4.5-13.5l4.5-8.5l4.5-2.9
		l4.5-22.1l4.5-13.3h4.5l4.5-22.8"/>
	<path class="st16" d="M301.2,327l4.5,5.2l4.5-0.6l4.5,8.7l4.5,7l4.5,3.5l4.5,13.8l4.5,2.3l4.5,10.7l4.5,6.3l4.5,8.1l4.5,7.6
		l4.5,6.2l4.5,10.5l4.5,7.1l4.5,4.5l4.5,6.2l4.5,1.6l4.5,0l4.5-1.6l4.5,0.7l4.5-1l4.5-4.3l4.5,0.5l4.5-7.1l4.5-4.4l4.5-3.4l4.5-5
		l4.5-10.7l4.5-7.4l4.5-5.7l4.5-16.1l4.5-4.9l4.5-2.6l4.5-19.2l4.5-10.6l4.5-5.9l4.5-17.7h4.5l4.5-10.5l4.5-6.9h4.5h4.5l4.5-12.1
		h4.5h4.5h4.5h4.5l4.5-23.2"/>
	<path class="st17" d="M296.8,318l4.5,19l4.5-0.5l4.5,6.5l4.5,4l4.5,1.8l4.5,2.9l4.5,7.8l4.5,5l4.5,9l4.5,10.5l4.5,5.4l4.5,5.8
		l4.5,8.4l4.5,6.1l4.5,7.3l4.5,8l4.5,3.6l4.5-1l4.5,0l4.5,1.6l4.5,0l4.5-3.8l4.5-5.7l4.5-5.2l4.5-2.5l4.5-5.5l4.5-6.1l4.5-4l4.5-9
		l4.5-10.6l4.5-5.3l4.5-8.4l4.5-5.8l4.5-3.2l4.5-10.5l4.5-8.5l4.5-3.2l4.5-3.6h4.5l4.5-27"/>
	<path class="st18" d="M314.8,340.9l4.5,0.4l4.5,11.8l4.5,4l4.5,8l4.5,11l4.5,7.9l4.5,10.4l4.5,12.4l4.5,3.4l4.5,6.6l4.5,9.9
		l4.5,5.7l4.5,7.3l4.5,5.7l4.5,3.2l4.5,3.1l4.5-1l4.5-3.5l4.5-1.2l4.5-5.7l4.5,0l4.5-7.9l4.5-6.9l4.5-6.6l4.5-3.4l4.5-8.7l4.5-8.4
		l4.5-15.6l4.5-4.3l4.5-9.4l4.5-11.6l4.5-4.3l4.5-11.2l4.5-6.4l4.5-8.8l4.5-10.4l4.5-16.4l4.5-3.9l4.5-6l4.5-13.5l4.5-17.4"/>
	<path class="st19" d="M305.8,310.6l4.5,6.8l4.5,7.3l4.5,17l4.5,11.3l4.5,4.7l4.5,9.4l4.5,7.4l4.5,9.4l4.5,13.6l4.5,10.7l4.5,5.4
		l4.5,8.6l4.5,5l4.5,5.6l4.5,1.9l4.5,4.1l4.5,2.2l4.5-1.3l4.5-2.2l4.5-1.4l4.5-2.6l4.5-5.3l4.5-7.8l4.5-4.6l4.5-1.4l4.5-1.5l4.5-7.2
		l4.5-1l4.5-9.4l4.5-3.5l4.5-8.6l4.5-9.8l4.5-8.5l4.5-6.8l4.5-12.9l4.5-5.5l4.5-3.1l4.5-14.2l4.5-7.1h4.5l4.5-5.6l4.5-8l4.5-20.7
		h4.5l4.5-27.6"/>
</g>
<g>
	<line class="st20" x1="119" y1="534" x2="569" y2="534"/>
	<line class="st20" x1="119" y1="84" x2="569" y2="84"/>
	<line class="st20" x1="119" y1="534" x2="119" y2="529.5"/>
	<line class="st20" x1="344" y1="534" x2="344" y2="529.5"/>
	<line class="st20" x1="569" y1="534" x2="569" y2="529.5"/>
	<line class="st20" x1="119" y1="84" x2="119" y2="88.5"/>
	<line class="st20" x1="344" y1="84" x2="344" y2="88.5"/>
	<line class="st20" x1="569" y1="84" x2="569" y2="88.5"/>
</g>
<g transform="translate(119,542.8)">
	<text transform="matrix(1 0 0 1 -11 25)" class="st21 st0 st22">-5</text>
</g>
<g transform="translate(344,542.8)">
	<text transform="matrix(1 0 0 1 -7 25)" class="st21 st0 st22">0</text>
</g>
<g transform="translate(569,542.8)">
	<text transform="matrix(1 0 0 1 -7 25)" class="st21 st0 st22">5</text>
</g>
<g transform="translate(344.0002,575.8)">
	<text transform="matrix(1 0 0 1 -53.5 31)" class="st21 st0 st23">Position</text>
</g>
<g>
	<line class="st20" x1="119" y1="534" x2="119" y2="84"/>
	<line class="st20" x1="569" y1="534" x2="569" y2="84"/>
	<line class="st20" x1="119" y1="534" x2="123.5" y2="534"/>
	<line class="st20" x1="119" y1="459" x2="123.5" y2="459"/>
	<line class="st20" x1="119" y1="384" x2="123.5" y2="384"/>
	<line class="st20" x1="119" y1="309" x2="123.5" y2="309"/>
	<line class="st20" x1="119" y1="234" x2="123.5" y2="234"/>
	<line class="st20" x1="119" y1="159" x2="123.5" y2="159"/>
	<line class="st20" x1="119" y1="84" x2="123.5" y2="84"/>
	<line class="st20" x1="569" y1="534" x2="564.5" y2="534"/>
	<line class="st20" x1="569" y1="459" x2="564.5" y2="459"/>
	<line class="st20" x1="569" y1="384" x2="564.5" y2="384"/>
	<line class="st20" x1="569" y1="309" x2="564.5" y2="309"/>
	<line class="st20" x1="569" y1="234" x2="564.5" y2="234"/>
	<line class="st20" x1="569" y1="159" x2="564.5" y2="159"/>
	<line class="st20" x1="569" y1="84" x2="564.5" y2="84"/>
</g>
<g transform="translate(110.2,534)">
	<text transform="matrix(1 0 0 1 -35 9.5)" class="st21 st0 st22">-10</text>
</g>
<g transform="translate(110.2,459)">
	<text transform="matrix(1 0 0 1 -22 9.5)" class="st21 st0 st22">-5</text>
</g>
<g transform="translate(110.2,384)">
	<text transform="matrix(1 0 0 1 -14 9.5)" class="st21 st0 st22">0</text>
</g>
<g transform="translate(110.2,309)">
	<text transform="matrix(1 0 0 1 -14 9.5)" class="st21 st0 st22">5</text>
</g>
<g transform="translate(110.2,234)">
	<text transform="matrix(1 0 0 1 -27 9.5)" class="st21 st0 st22">10</text>
</g>
<g transform="translate(110.2,159)">
	<text transform="matrix(1 0 0 1 -27 9.5)" class="st21 st0 st22">15</text>
</g>
<g transform="translate(110.2,84)">
	<text transform="matrix(1 0 0 1 -27 9.5)" class="st21 st0 st22">20</text>
</g>
<g transform="translate(662.7474,214.4338)">
	<text transform="matrix(1 0 0 1 0 7.5)" class="st0 st24">p = 0.02</text>
</g>
<g>
	<line class="st11" x1="598" y1="214.4" x2="658.2" y2="214.4"/>
</g>
<g transform="translate(662.7474,238.0753)">
	<text transform="matrix(1 0 0 1 0 7.5)" class="st0 st24">p = 0.03</text>
</g>
<g>
	<line class="st12" x1="598" y1="238.1" x2="658.2" y2="238.1"/>
</g>
<g transform="translate(662.7474,261.7169)">
	<text transform="matrix(1 0 0 1 0 7.5)" class="st0 st24">p = 0.05</text>
</g>
<g>
	<line class="st13" x1="598" y1="261.7" x2="658.2" y2="261.7"/>
</g>
<g transform="translate(662.7474,285.3585)">
	<text transform="matrix(1 0 0 1 0 7.5)" class="st0 st24">p = 0.64</text>
</g>
<g>
	<line class="st14" x1="598" y1="285.4" x2="658.2" y2="285.4"/>
</g>
<g transform="translate(662.7474,309)">
	<text transform="matrix(1 0 0 1 0 7.5)" class="st0 st24">p = 0.74</text>
</g>
<g>
	<line class="st15" x1="598" y1="309" x2="658.2" y2="309"/>
</g>
<g transform="translate(662.7474,332.6415)">
	<text transform="matrix(1 0 0 1 0 7.5)" class="st0 st24">p = 0.93</text>
</g>
<g>
	<line class="st16" x1="598" y1="332.6" x2="658.2" y2="332.6"/>
</g>
<g transform="translate(662.7474,356.2831)">
	<text transform="matrix(1 0 0 1 0 7.5)" class="st0 st24">p = 0.94</text>
</g>
<g>
	<line class="st17" x1="598" y1="356.3" x2="658.2" y2="356.3"/>
</g>
<g transform="translate(662.7474,379.9247)">
	<text transform="matrix(1 0 0 1 0 7.5)" class="st0 st24">p = 0.95</text>
</g>
<g>
	<line class="st18" x1="598" y1="379.9" x2="658.2" y2="379.9"/>
</g>
<g transform="translate(662.7474,403.5662)">
	<text transform="matrix(1 0 0 1 0 7.5)" class="st0 st24">p = 0.97</text>
</g>
<g>
	<line class="st19" x1="598" y1="403.6" x2="658.2" y2="403.6"/>
</g>
<g>
	<path class="st25" d="M858,534h450V84H858V534z"/>
</g>
<g transform="translate(1109.0011,79.5)">
	<text transform="matrix(1 0 0 1 -111.5 -8)" class="st0 st1">Monkey W</text>
</g>
<g>
	<path class="st26" d="M1026.8,486.5l4.5-2.5l4.5-0.5l4.5-8l4.5-5.6l4.5-12l4.5-8.4l4.5-10.3l4.5-7.8l4.5-11.5l4.5-14.8l4.5-5.1
		l4.5-16l4.5-7.8l4.5-7.7l4.5-8.2l4.5-2.7l4.5-14.8l4.5,1.3l4.5-11.4l4.5-10.9l4.5-12.8v-29.2l-4.5,10.4l-4.5,7.2l-4.5,14.3l-4.5,12
		l-4.5-2.9l-4.5,18.6l-4.5,14.8l-4.5,12.7l-4.5,17.2l-4.5,8.5l-4.5,3.4l-4.5,11.7l-4.5,9.8l-4.5,8.9l-4.5,7.1l-4.5,8.2l-4.5,8
		l-4.5,3.3l-4.5,3.1l-4.5,0.1l-4.5,0.1l-4.5,2.8l-4.5-2.1l-4.5-2.5l-4.5-3.1l-4.5-4.8l-4.5-3.9l-4.5-6.9l-4.5-8.7l-4.5-6.7l-4.5-3.1
		l-4.5-10.3l-4.5-9.6l-4.5,0.8l-4.5-16.3l-4.5-9.7l-4.5-15.1l-4.5-10.7l-4.5-1.1l-4.5,2.9h-4.5l-4.5-26.5l-4.5-1.4l-4.5-22
		l-4.5-14.2l-4.5-13.9h-4.5h-4.5l-4.5-58.7h-4.5h-4.5v125h4.5l4.5,32.9l4.5-13.2h4.5h4.5l4.5,0l4.5,0l4.5,0.1l4.5,3.4l4.5,7.5h4.5
		l4.5,24.3l4.5,3.5l4.5,2.6l4.5,9.8l4.5,12.6l4.5,10.9l4.5,16.2l4.5,6.7l4.5,6.2l4.5,4.6l4.5,4l4.5,5.5l4.5,5.5l4.5,2.6l4.5,2.7
		l4.5,0.7l4.5,3.2l4.5,1.6L1026.8,486.5z"/>
	<path class="st3" d="M918.8,467.1h4.5h4.5l4.5-4.6l4.5-4.6l4.5,0.9l4.5,1.6l4.5,1.6l4.5-3.1l4.5,4.3l4.5,9.1l4.5,4.8l4.5,15.5
		l4.5,7.9l4.5,6.9l4.5,3.8l4.5-0.6l4.5-2.5l4.5,2.9l4.5-2.4l4.5,1.2l4.5-1.8l4.5,1.2l4.5-3.9l4.5-4.9l4.5-8.5l4.5-3.3l4.5-8.9l4.5-6
		l4.5-6.4l4.5-5.2l4.5-12.4l4.5-9.9l4.5-9.5l4.5-12.1l4.5-12.6l4.5-21.7l-4.5,13.3l-4.5,6.6l-4.5,11l-4.5,9.1l-4.5,7.5l-4.5,9.5
		l-4.5,4.1l-4.5,5.3l-4.5,5.5l-4.5,5.7l-4.5,0.8l-4.5,7.4l-4.5,0.8l-4.5,2.2l-4.5-0.2l-4.5,0.4l-4.5-2.8l-4.5-2.8l-4.5-2l-4.5-9.3
		l-4.5,0.8l-4.5-5l-4.5-10.1l-4.5-5.3l-4.5-8.9l-4.5-10.3l-4.5-10.3l-4.5-5.2l-4.5,0.1l-4.5-0.3l-4.5-7.9l-4.5-5.4l-4.5-17.6
		l-4.5-28.8h-4.5h-4.5l-4.5-56.6h-4.5h-4.5v206.7h4.5h4.5L918.8,467.1z M1112.2,309.4l-4.5,5.4l-4.5,11.9l-4.5,10.9l-4.5,12.2
		l-4.5,7l-4.5,6.2l-4.5,21l4.5-11.8l4.5-2l4.5-4.8l4.5-6.7l4.5-6.4l4.5-9l4.5-4.5l4.5,3.7l4.5-2.9v-44.4l-4.5,10.5L1112.2,309.4z"/>
	<path class="st27" d="M999.8,425.8l4.5,6.1l4.5-1.3l4.5,10.1l4.5,4.4l4.5,4.5l4.5-0.5l4.5,1.8l4.5-5.4l4.5-2.1l4.5-2.2l4.5-6.6
		l4.5-1.8l4.5-4.7l4.5-9.8l4.5-11.3l4.5-5.8l4.5-7.4l4.5-9.8l4.5-2.4l4.5-5.8l4.5-3.9l4.5-7.8l4.5-8.2l4.5-6.4l4.5-6.4l4.5-7.7
		l4.5-4.1l4.5,5.7l4.5-3.5l4.5-24.6l4.5-3.4l4.5,1.5l4.5-9.1l4.5-2v-36.2l-4.5,6.9l-4.5,11.4l-4.5-1.3l-4.5,0.2l-4.5-10l-4.5,17.2
		l-4.5,5.7l-4.5,14.4l-4.5,16.9l-4.5,10.6l-4.5,4.6l-4.5,10l-4.5,11.2l-4.5,9.1l-4.5,6.8l-4.5,10.7l-4.5,4.3l-4.5,3.9l-4.5,5.6
		l-4.5,7.6l-4.5,4.5l-4.5,2.8l-4.5,0.7l-4.5,4.5l-4.5-0.9l-4.5,1.7l-4.5,3.8l-4.5-3.5l-4.5-2.3l-4.5-5.9l-4.5-8.3l-4.5-14.4l-4.5,0
		l-4.5-6.7l-4.5-7l-4.5-6.7l-4.5-6.9l-4.5-5.9l-4.5-6.8l-4.5-14.3l-4.5-13.4l-4.5-3.2l-4.5-0.6l-4.5-2.7l-4.5,7.7l-4.5-13.1
		l-4.5-12.6h-4.5v21.4h4.5l4.5,3.8l4.5,4.6l4.5,16.8l4.5,8.2l4.5,1.7l4.5,11.1l4.5,20l4.5,12l4.5,5.6l4.5,6.8l4.5,0l4.5,6.5
		L999.8,425.8z"/>
	<path class="st28" d="M1013.2,407.1l4.5,5.7l4.5,3.3l4.5,4.7l4.5,5.9l4.5-0.3l4.5-1.7l4.5-2.5l4.5-0.3l4.5-4.2l4.5-1.6l4.5-4.1
		l4.5-4.2l4.5-9.8l4.5-6.1l4.5-7.9l-4.5,3.6l-4.5,3.1l-4.5,6.7l-4.5,0.1l-4.5-2.2l-4.5-1.9l-4.5,3.3l-4.5,0.4l-4.5-1l-4.5-2.9
		l-4.5-2.8l-4.5-8.9l-4.5-2.8l-4.5-5.5l-4.5-8.1l-4.5,1l-4.5-7.8l-4.5-6.9l-4.5-0.7l-4.5-5.3l-4.5-13.3l-4.5-9.3l-4.5-0.7l-4.5-5.3
		l-4.5-0.4l-4.5-2.8v47.8l4.5-0.2l4.5,3.4l4.5-2.4l4.5,1.3l4.5,15.2l4.5,5.4l4.5,7.5l4.5,2.6l4.5,6.3l4.5,5.2L1013.2,407.1z
		 M1143.8,280.6l-4.5,10.6l-4.5,2.8l-4.5-7.4l-4.5,9.4l-4.5,17.8l-4.5,0l-4.5,2l-4.5,11l-4.5,14.1l-4.5,7.3l-4.5,9l-4.5,11l-4.5,6.3
		l-4.5,9.5l4.5-3.8l4.5-1.1l4.5-8.4l4.5-4.6l4.5-2l4.5-7.9l4.5-0.1l4.5,2l4.5-5.5l4.5-10.7l4.5-6.4l4.5-14.5l4.5-7.3l4.5-3.8
		l4.5-3.6l4.5-2.5l4.5,3.2l4.5,0.4h4.5l4.5-5.4l4.5-14.6l4.5,9h4.5l4.5-0.9l4.5-2.7l4.5-36.5h4.5h4.5l4.5-11.4v-26l-4.5,26h-4.5
		h-4.5l-4.5,16.2l-4.5,8.1l-4.5,1.6h-4.5l-4.5-0.3l-4.5,2.7l-4.5,0.2h-4.5l-4.5-1.9l-4.5,2.2l-4.5,7.9L1143.8,280.6z"/>
	<path class="st29" d="M1017.8,361.6l4.5,5.5l4.5,6.5l4.5,5.2l4.5-0.2l4.5,6.6l4.5-2.3l4.5,0l4.5,0.7l4.5-0.1l4.5,2l4.5,0.1l4.5,3.5
		l4.5-1.6l4.5-3.4l4.5,5.7l4.5,1.4l4.5,3.1l4.5,1.6l4.5-0.7l4.5,2.3l4.5-0.9l4.5-4l4.5-4.4l4.5-4.8l4.5,0.4l4.5-10l4.5,1l4.5-2.1
		l4.5-7.8l4.5-5.6l4.5-6.2l4.5-2.5l4.5-8l4.5-2.3l4.5,14.2l4.5-17.6h4.5h4.5l4.5-3.2l4.5-7.4l4.5,10.2l4.5-14.9h4.5l4.5-6.4h4.5h4.5
		V198.7l-4.5,32.4h-4.5h-4.5h-4.5h-4.5l-4.5,29.6l-4.5,18.4l-4.5,4.3h-4.5h-4.5l-4.5,12l-4.5,4.7l-4.5,2.7l-4.5-5.6l-4.5,8.1
		l-4.5,9.7l-4.5,3.3l-4.5,10.8l-4.5,7.9l-4.5,1.1l-4.5,9.5l-4.5,4.1l-4.5,5.7l-4.5,5l-4.5,5.1l-4.5,5.2l-4.5,0.7l-4.5,2.6l-4.5,4.7
		l-4.5,0.7l-4.5-0.6l-4.5,3.2l-4.5,0.5l-4.5,1.5l-4.5-7.8l-4.5-1.8l-4.5-6.2l-4.5-1.5l-4.5-1.8l-4.5,1.2l-4.5-1.1l-4.5-8.5l-4.5-6
		l-4.5-8.7l-4.5-13.4l-4.5-13.6l-4.5-6l-4.5-7.4l-4.5-3.6l-4.5-9l-4.5,4.2l-4.5-13.7l-4.5-13.2h-4.5h-4.5v23.7h4.5h4.5l4.5,3.8
		l4.5,6.7l4.5,16.2l4.5,19.5l4.5,7l4.5,4.1L1017.8,361.6z"/>
	<path class="st30" d="M1103.2,403.4l4.5,5l4.5,0l4.5-6.6l4.5,2l4.5-1.4l4.5,2.1l4.5-4.7l4.5-3l4.5-4.3l4.5-9l4.5-3.6l4.5-2.3
		l4.5-2.1l4.5-10.8l4.5-4.9l4.5-7.8l4.5-5.5l4.5,0l4.5-13.4l4.5-2.3l4.5-5.9l4.5,6.1l4.5-8.5h4.5l4.5-3.3v-60.4h-4.5l-4.5,10.1
		l-4.5-8.5l-4.5,13.7l-4.5,7.4l-4.5-2.3l-4.5,15l-4.5,0l-4.5,9l-4.5,11.6l-4.5,6.5l-4.5,9l-4.5,3.9l-4.5,0.4l-4.5,6.6l-4.5,13.8
		l-4.5,5.7l-4.5,6.7l-4.5,5l-4.5,6l-4.5,3l-4.5,1.4l-4.5,6.5l-4.5,1l-4.5,2.2l-4.5,1l-4.5,2.2l-4.5-7l-4.5-4.4l-4.5-0.4l4.5,4.1
		l4.5,4.5l4.5,9.2l4.5-0.3L1103.2,403.4z M1035.8,318l-4.5-2.9l-4.5-7.4l-4.5-21.1l-4.5-2.4h-4.5l-4.5-18.5v48.1l4.5-5.3h4.5
		l4.5,19.7l4.5,6.7l4.5,7.3l4.5,1.6l4.5,4.8l4.5,7.7l4.5-0.3l4.5,3.5l4.5,2l4.5,6l4.5,1.4l4.5,4l4.5,5.3l4.5,5.8l-4.5-9.9l-4.5-8.1
		l-4.5-4.3l-4.5-5.3l-4.5-6.8l-4.5-8.5l-4.5-3.6l-4.5-5.2l-4.5-9.1L1035.8,318z"/>
	<path class="st31" d="M1062.8,342.4l-4.5-2.4l-4.5-4.1l-4.5-1.1l-4.5-5l-4.5-4l-4.5-12.4l-4.5-10.7l-4.5-19.8l-4.5-6.3l-4.5,13.4
		V332l4.5,15.4l4.5-10.5l4.5,6l4.5,6.4l4.5,4.9l4.5,1.6l4.5,3.7l4.5-1.4l4.5,0.6l4.5,1.5l4.5,2.7l4.5,10.3l4.5,10.9l4.5,0.2l4.5,2
		l4.5,4.2l4.5,5.1l4.5-1.5l4.5-1.1l4.5,0.6l4.5,5.3l4.5-4.1l4.5-2.6l4.5-0.6l4.5-0.1l4.5-2.3l4.5-1.9l4.5-4.5l4.5-6.9l4.5-13.7
		l4.5-3.4l4.5-6.4l4.5-5.2l4.5-9.1l4.5-10.8l4.5-6l4.5-8l4.5-9.4l4.5,13.2l4.5-10l4.5,10.6l4.5-3.7l4.5-14.5l4.5-2.1l4.5-3V185.5
		l-4.5,14.1l-4.5,0l-4.5-14.5l-4.5,9.5l-4.5,26.7l-4.5,8.3l-4.5,9.5l-4.5,15l-4.5,15.1l-4.5,8.5l-4.5,8.8l-4.5,12.8l-4.5,13.2
		l-4.5,5.8l-4.5,11.3l-4.5,4.6l-4.5,12.3l-4.5,7.9l-4.5,8.7l-4.5,5.1l-4.5,3.5l-4.5,4.3l-4.5,5l-4.5,5.5l-4.5-2.4l-4.5-1.8l-4.5,1.2
		l-4.5,2.5l-4.5-4.1l-4.5-1.7l-4.5,4l-4.5-10.9l-4.5-15.7l-4.5-11.6L1062.8,342.4z"/>
	<path class="st10" d="M1116.8,427.7l-4.5-5.8l-4.5-5l-4.5-3.5l-4.5-8.5l-4.5-1.4l-4.5-7.5l-4.5-11.4l-4.5-0.6l4.5,8.5l4.5,11.2
		l4.5,11.8l4.5,3l4.5,11.9l4.5,3.4l4.5,13.3l4.5,7.3l4.5,5.6l4.5-0.6l4.5,1.5l4.5,0.9l4.5,0.4l4.5,1.9l4.5-5.3l4.5-6.1l4.5-1.1
		l4.5-8.3l4.5-3.2l4.5-7.7l4.5-12.4l4.5-16.1l4.5-11.5l4.5-7.4l4.5-6.7l4.5-4.7l4.5-13.8l4.5-6.2l4.5-13.8l4.5,5.1l4.5-13.4
		l4.5-13.6l4.5,4.1l4.5-13.6l4.5,2.6l4.5,10.3h4.5h4.5V172.9l-4.5,37h-4.5l-4.5,10.3l-4.5,10.4l-4.5,12l-4.5,14.9l-4.5,15.7
		l-4.5,15.7l-4.5,5.1l-4.5,13.6l-4.5,14.7l-4.5,11.3l-4.5,6.1l-4.5,5.4l-4.5,8.2l-4.5,10.7l-4.5,2.8l-4.5,15.8l-4.5,6l-4.5,7.7
		l-4.5,6l-4.5,6.7l-4.5,6.8l-4.5,6.1l-4.5,0.6l-4.5,3.5l-4.5,0.6l-4.5,1.8l-4.5,4.7L1116.8,427.7z M1044.8,331.8l-4.5-12l-4.5-3.3
		v13.7l4.5,14.1l4.5,1.5l4.5-0.6l4.5,4.1l4.5,9.7l4.5,5.3l4.5,13.5l4.5-2.4l4.5,5.2l4.5,3.4l-4.5-9.1l-4.5-4.7l-4.5-8.5l-4.5-26.7
		l-4.5-4.3l-4.5,3.9l-4.5-2.6L1044.8,331.8z"/>
	<path class="st32" d="M1103.2,413.5l-4.5-7.8l-4.5-4.7l-4.5-9.4l-4.5-5l-4.5-2.6l4.5,13.6l4.5,9.8l4.5,13.1l4.5,6.3l4.5,8.7
		l4.5,9.9l4.5,5.9l4.5,8.9l4.5,3.4l4.5,5.1l4.5,6.1l4.5,2.7l4.5,0.1l4.5-4.9l4.5-3.8l4.5-2.6l4.5-5.7l4.5-3.1l4.5-6.4l4.5-9l4.5-8.7
		l4.5-8.7l4.5-6.7l4.5-11.7l4.5-16l4.5-0.5l4.5-11.5l4.5-12.8l4.5,1h4.5l4.5-3.3l4.5-3.1l4.5-4.8l4.5-4.9l4.5,8l4.5,51.3l4.5-15.7
		h4.5l4.5-30.1V130.7l-4.5,34.2h-4.5h-4.5l-4.5,51.3l-4.5,28.7l-4.5,8.3l-4.5,6.4l-4.5,22.4l-4.5,7.7h-4.5l-4.5,14.1l-4.5,14.6
		l-4.5,17.9l-4.5,11.2l-4.5,14.9l-4.5,7.8l-4.5,7.8l-4.5,8.3l-4.5-0.2l-4.5,8.8l-4.5,6.3l-4.5,7.3l-4.5,7.5l-4.5,1.6l-4.5,3l-4.5,8
		l-4.5,3.3l-4.5-1.3l-4.5-4l-4.5,1.6l-4.5,0.6l-4.5-5.5l-4.5-2.4L1103.2,413.5z M1071.8,370l4.5,9.5l4.5,4.5l-4.5-11.4l-4.5-9.3
		l-4.5-8.4l-4.5-8l-4.5-19.3l-4.5-19.1l-4.5-18.2h-4.5h-4.5v0.4l4.5,3.6l4.5,20.9l4.5,16.6l4.5,6.5l4.5,22.3l4.5,4.8L1071.8,370z"/>
</g>
<g>
	<path class="st33" d="M891.8,273.8h4.5l4.5,16.5l4.5,22.8h4.5h4.5l4.5,6.9l4.5,7.1l4.5,11l4.5,2.4l4.5,17h4.5l4.5,10.7l4.5,2.3
		l4.5,6.7l4.5,12.4l4.5,11.2l4.5,13.6l4.5,7.7l4.5,8.1l4.5,8.3l4.5,3.9l4.5,5.3l4.5,7.1l4.5,6.2l4.5,3.3l4.5,3.7l4.5,1.9l4.5,2.9
		l4.5,1.9l4.5-3.4l4.5-1.3l4.5-0.3l4.5-5.6l4.5-4.5l4.5-10l4.5-8.3l4.5-8.7l4.5-8.3l4.5-10.6l4.5-13.2l4.5-4.3l4.5-12.2l4.5-12.5
		l4.5-10.2l4.5-11.5l4.5-10.7l4.5-5.9l4.5-5.4l4.5-12.8l4.5-9.1l4.5-11.6"/>
	<path class="st34" d="M905.2,388.8h4.5h4.5l4.5,15.8h4.5h4.5l4.5,12.1l4.5,6.5l4.5,3.1l4.5,4.7l4.5,1l4.5-1.6l4.5,4.7l4.5,9.7
		l4.5,7.6l4.5,12.2l4.5,6.6l4.5,8.5l4.5,4.4l4.5-0.7l4.5,3.4l4.5,2.4l4.5,0.2l4.5,2l4.5-1.1l4.5,0.7l4.5-3.1l4.5-2.9l4.5-7.9l4.5-2
		l4.5-7.3l4.5-5.7l4.5-5.8l4.5-4.7l4.5-10.9l4.5-8.7l4.5-9.3l4.5-11.6l4.5-9.6l4.5-17.5l4.5-16.4l4.5-4.1l4.5-5.9l4.5-9.5l4.5-8.6
		l4.5-10.5l4.5-4.9h4.5l4.5-6.7"/>
	<path class="st35" d="M936.8,306.5h4.5l4.5,8.2l4.5,8.9l4.5,4.6l4.5,5.5l4.5,1.2l4.5,7.1l4.5,16.7l4.5,13.1l4.5,6.2l4.5,6.3
		l4.5,3.5l4.5,6.6l4.5,9.2l4.5,6.4l4.5-0.6l4.5,12.2l4.5,6.4l4.5,5.2l4.5,0.9l4.5,2.6l4.5-4.6l4.5-1.9l4.5-0.6l4.5-5.6l4.5-1.3
		l4.5-3.7l4.5-7.1l4.5-9.4l4.5-5.7l4.5-5.7l4.5-7.1l4.5-6.5l4.5-6.3l4.5-6.5l4.5-9.5l4.5-9.1l4.5-5.5l4.5-8.5l4.5-12.3l4.5-9.2h4.5
		l4.5-10.4l4.5-7.3l4.5-1.8l4.5,1.4l4.5-10.2l4.5-4.4"/>
	<path class="st36" d="M963.8,337.6l4.5,1.3l4.5,1.9l4.5,1.4l4.5,1l4.5,12.2l4.5,9.3l4.5,6.4l4.5,1.6l4.5,6.6l4.5,6.5l4.5,0.2
		l4.5,6.9l4.5,4.4l4.5,3.8l4.5,7.4l4.5,1.2l4.5,0.6l4.5-0.7l4.5-0.4l4.5-3.8l4.5,0.1l4.5-1l4.5-2.1l4.5-8.2l4.5-4.6l4.5-5.8l4.5-6.7
		l4.5-3.7l4.5-9.7l4.5-6.8l4.5-4.7l4.5-11l4.5-5.6l4.5,0l4.5-2.8l4.5-14.2l4.5-7.9l4.5-3.6l4.5-5.1l4.5-7.2l4.5-1.4l4.5-5.2l4.5,0.5
		l4.5,1.2h4.5l4.5-2.8l4.5-8.6l4.5,4.7h4.5l4.5-1.2l4.5-5.4l4.5-26.4h4.5h4.5l4.5-18.7"/>
	<path class="st37" d="M977.2,279.8h4.5h4.5l4.5,8.5l4.5,10.2l4.5,6l4.5,14.3l4.5,5.3l4.5,5.8l4.5,9.3l4.5,9.5l4.5,10l4.5,7l4.5,2.9
		l4.5,7.5l4.5-0.6l4.5-0.6l4.5,1.3l4.5,0.7l4.5,4.1l4.5,1l4.5,5.6l4.5-1.5l4.5-1.9l4.5,1.2l4.5,1l4.5,1.2l4.5-1.6l4.5-1.7l4.5,0.8
		l4.5-3l4.5-4.6l4.5-4.7l4.5-5.2l4.5-1.9l4.5-9.7l4.5-0.1l4.5-5l4.5-9.3l4.5-4.4l4.5-7.9l4.5-5.3l4.5-1.2l4.5-2.5l4.5,4.8l4.5-14.8
		h4.5h4.5l4.5-3.8l4.5-12.9l4.5-9.7l4.5-7.4h4.5l4.5-3.2h4.5l4.5-16.2"/>
	<path class="st38" d="M1008.8,289.8l4.5,6.6h4.5l4.5,11.1l4.5,13.9l4.5,7.3l4.5,2.2l4.5,5l4.5,8.4l4.5,2.4l4.5,3.6l4.5,5.2l4.5,6.4
		l4.5,3.4l4.5,4.2l4.5,6.7l4.5,7.9l4.5,2.2l4.5,4.5l4.5,8.1l4.5-1.2l4.5,0.5l4.5,1.4l4.5-0.5l4.5-6.6l4.5,0.3l4.5-2.2l4.5-2l4.5-4.8
		l4.5-4.9l4.5-5l4.5-11.4l4.5-5.1l4.5-1.3l4.5-3l4.5-9.9l4.5-5.7l4.5-9.7l4.5-7.3l4.5,0l4.5-14.2h4.5l4.5-6.6l4.5-3.8h4.5l4.5-5
		l4.5-1.6"/>
	<path class="st39" d="M1017.8,311l4.5,1l4.5-2.1l4.5,12.9l4.5,8.5l4.5,8.6l4.5,2.8l4.5,4.3l4.5-0.2l4.5,2.3l4.5,1.9l4.5,3.1
		l4.5,10.9l4.5,13.3l4.5,5.5l4.5-1l4.5,3l4.5,4.6l4.5-2l4.5-1.2l4.5,1.2l4.5,3.8l4.5-4.8l4.5-3.8l4.5-2.5l4.5-1.8l4.5-3.7l4.5-5.3
		l4.5-6.2l4.5-9.6l4.5-9.1l4.5-7.4l4.5-6.1l4.5-9.2l4.5-10.9l4.5-9.8l4.5-7.2l4.5-11.6l4.5-12.2l4.5,1.9l4.5-9.1l4.5-8.1l4.5-6.6
		h4.5l4.5-1.1l4.5-8.5"/>
	<path class="st19" d="M1035.8,323.4l4.5,8.7l4.5,6.8l4.5-0.2l4.5,3.3l4.5,2.9l4.5,4.8l4.5,20.1l4.5,3.1l4.5,4.9l4.5,6.2l4.5,4.6
		l4.5,11.3l4.5,9.6l4.5,2.2l4.5,10.2l4.5,3.5l4.5,9.2l4.5,6.6l4.5,5.5l4.5-2.6l4.5-0.1l4.5,0.1l4.5-1.5l4.5,0.7l4.5-5.7l4.5-6.5
		l4.5-3.9l4.5-7.2l4.5-5.5l4.5-6.8l4.5-14.1l4.5-9.4l4.5-11.1l4.5-7.8l4.5-6.1l4.5-5.4l4.5-12.5l4.5-10.5l4.5-13.7h4.5l4.5-14.6
		l4.5-14.7l4.5-5.4l4.5-12.8l4.5-3.9h4.5h4.5l4.5-18.5"/>
	<path class="st40" d="M1040.2,290.6l4.5,1.8l4.5,10.5l4.5,17.4l4.5,12.8l4.5,20.8l4.5,6.4l4.5,6.5l4.5,9.4l4.5,7.9l4.5,8.1l4.5,7.4
		l4.5,11.3l4.5,5.5l4.5,8.3l4.5,8.7l4.5,4.2l4.5,7.2l4.5,1.4l4.5,1.7l4.5,5.1l4.5,2l4.5-1.6l4.5-6.5l4.5-3.4l4.5-2.1l4.5-6.6
		l4.5-5.2l4.5-6.3l4.5-8.9l4.5-4.2l4.5-8.5l4.5-7.3l4.5-9.8l4.5-15.5l4.5-5.9l4.5-14.7l4.5-13.7l4.5-6.6h4.5l4.5-5.5l4.5-12.7
		l4.5-5.6l4.5-6.6l4.5-10.3h4.5l4.5-7.8h4.5l4.5-32.1"/>
</g>
<g>
	<line class="st20" x1="858" y1="534" x2="1308" y2="534"/>
	<line class="st20" x1="858" y1="84" x2="1308" y2="84"/>
	<line class="st20" x1="858" y1="534" x2="858" y2="529.5"/>
	<line class="st20" x1="1083" y1="534" x2="1083" y2="529.5"/>
	<line class="st20" x1="1308" y1="534" x2="1308" y2="529.5"/>
	<line class="st20" x1="858" y1="84" x2="858" y2="88.5"/>
	<line class="st20" x1="1083" y1="84" x2="1083" y2="88.5"/>
	<line class="st20" x1="1308" y1="84" x2="1308" y2="88.5"/>
</g>
<g transform="translate(884,542.8)">
	<text transform="matrix(1 0 0 1 -37 25)" class="st21 st0 st22">-5</text>
</g>
<g transform="translate(1109,542.8)">
	<text transform="matrix(1 0 0 1 -33 25)" class="st21 st0 st22">0</text>
</g>
<g transform="translate(1334,542.8)">
	<text transform="matrix(1 0 0 1 -33 25)" class="st21 st0 st22">5</text>
</g>
<g transform="translate(1109.0002,575.8)">
	<text transform="matrix(1 0 0 1 -79.5 31)" class="st21 st0 st23">Position</text>
</g>
<g>
	<line class="st20" x1="858" y1="534" x2="858" y2="84"/>
	<line class="st20" x1="1308" y1="534" x2="1308" y2="84"/>
	<line class="st20" x1="858" y1="534" x2="862.5" y2="534"/>
	<line class="st20" x1="858" y1="459" x2="862.5" y2="459"/>
	<line class="st20" x1="858" y1="384" x2="862.5" y2="384"/>
	<line class="st20" x1="858" y1="309" x2="862.5" y2="309"/>
	<line class="st20" x1="858" y1="234" x2="862.5" y2="234"/>
	<line class="st20" x1="858" y1="159" x2="862.5" y2="159"/>
	<line class="st20" x1="858" y1="84" x2="862.5" y2="84"/>
	<line class="st20" x1="1308" y1="534" x2="1303.5" y2="534"/>
	<line class="st20" x1="1308" y1="459" x2="1303.5" y2="459"/>
	<line class="st20" x1="1308" y1="384" x2="1303.5" y2="384"/>
	<line class="st20" x1="1308" y1="309" x2="1303.5" y2="309"/>
	<line class="st20" x1="1308" y1="234" x2="1303.5" y2="234"/>
	<line class="st20" x1="1308" y1="159" x2="1303.5" y2="159"/>
	<line class="st20" x1="1308" y1="84" x2="1303.5" y2="84"/>
</g>
<g transform="translate(875.2,534)">
	<text transform="matrix(1 0 0 1 -61 9.5)" class="st21 st0 st22">-10</text>
</g>
<g transform="translate(875.2,459)">
	<text transform="matrix(1 0 0 1 -48 9.5)" class="st21 st0 st22">-5</text>
</g>
<g transform="translate(875.2,384)">
	<text transform="matrix(1 0 0 1 -40 9.5)" class="st21 st0 st22">0</text>
</g>
<g transform="translate(875.2,309)">
	<text transform="matrix(1 0 0 1 -40 9.5)" class="st21 st0 st22">5</text>
</g>
<g transform="translate(875.2,234)">
	<text transform="matrix(1 0 0 1 -53 9.5)" class="st21 st0 st22">10</text>
</g>
<g transform="translate(875.2,159)">
	<text transform="matrix(1 0 0 1 -53 9.5)" class="st21 st0 st22">15</text>
</g>
<g transform="translate(875.2,84)">
	<text transform="matrix(1 0 0 1 -53 9.5)" class="st21 st0 st22">20</text>
</g>
<g transform="translate(1427.7473,214.4338)">
	<text transform="matrix(1 0 0 1 -26 7.5)" class="st0 st24">p = 0.01</text>
</g>
<g>
	<line class="st33" x1="1337" y1="214.4" x2="1397.2" y2="214.4"/>
</g>
<g transform="translate(1427.7473,238.0753)">
	<text transform="matrix(1 0 0 1 -26 7.5)" class="st0 st24">p = 0.02</text>
</g>
<g>
	<line class="st34" x1="1337" y1="238.1" x2="1397.2" y2="238.1"/>
</g>
<g transform="translate(1427.7473,261.7169)">
	<text transform="matrix(1 0 0 1 -26 7.5)" class="st0 st24">p = 0.14</text>
</g>
<g>
	<line class="st35" x1="1337" y1="261.7" x2="1397.2" y2="261.7"/>
</g>
<g transform="translate(1427.7473,285.3585)">
	<text transform="matrix(1 0 0 1 -26 7.5)" class="st0 st24">p = 0.25</text>
</g>
<g>
	<line class="st36" x1="1337" y1="285.4" x2="1397.2" y2="285.4"/>
</g>
<g transform="translate(1427.7473,309)">
	<text transform="matrix(1 0 0 1 -26 7.5)" class="st0 st24">p = 0.59</text>
</g>
<g>
	<line class="st37" x1="1337" y1="309" x2="1397.2" y2="309"/>
</g>
<g transform="translate(1427.7473,332.6415)">
	<text transform="matrix(1 0 0 1 -26 7.5)" class="st0 st24">p = 0.77</text>
</g>
<g>
	<line class="st38" x1="1337" y1="332.6" x2="1397.2" y2="332.6"/>
</g>
<g transform="translate(1427.7473,356.2831)">
	<text transform="matrix(1 0 0 1 -26 7.5)" class="st0 st24">p = 0.83</text>
</g>
<g>
	<line class="st39" x1="1337" y1="356.3" x2="1397.2" y2="356.3"/>
</g>
<g transform="translate(1427.7473,379.9247)">
	<text transform="matrix(1 0 0 1 -26 7.5)" class="st0 st24">p = 0.97</text>
</g>
<g>
	<line class="st19" x1="1337" y1="379.9" x2="1397.2" y2="379.9"/>
</g>
<g transform="translate(1427.7473,403.5662)">
	<text transform="matrix(1 0 0 1 -26 7.5)" class="st0 st24">p = 0.97</text>
</g>
<g>
	<line class="st40" x1="1337" y1="403.6" x2="1397.2" y2="403.6"/>
</g>
<g transform="translate(42,31.5)">
	<text transform="matrix(1 0 0 1 -5.5 14.5)" class="st0 st1"> </text>
</g>
<g transform="translate(807,31.5)">
	<text transform="matrix(1 0 0 1 -5.5 14.5)" class="st0 st1"> </text>
</g>
<g transform="translate(804.2,308.9998) rotate(-90)">
	<text transform="matrix(1 0 0 1 -90.1335 -8.222)" class="st21 st0 st23">Potential </text>
</g>
<g>
	<path d="M771,256.7v1c-0.3,0-0.5,0.1-0.7,0.2c-0.2,0.1-0.2,0.3-0.2,0.6c0,0.8,0.9,1.4,2.6,1.7c1.7,0.4,6.6,0.7,14.5,1
		c7.1,0.3,12,0.8,14.6,1.7c2.6,0.8,3.9,1.9,3.9,3.3c0,0.3,0,0.5-0.1,0.8c0,0.2-0.1,0.5-0.2,0.6l-1.9-0.2v-0.9
		c0.4-0.1,0.6-0.2,0.8-0.3c0.1-0.1,0.2-0.3,0.2-0.6c0-0.5-0.9-1-2.6-1.4c-1.7-0.5-6.3-0.8-13.6-1.1c-8-0.3-13.2-0.8-15.7-1.6
		c-2.5-0.7-3.8-1.9-3.8-3.6c0-0.3,0-0.6,0.1-0.8c0-0.2,0.1-0.4,0.2-0.6L771,256.7"/>
	<path d="M777.2,246c0.8,0.5,1.4,1,1.7,1.5c0.4,0.5,0.5,1,0.5,1.5c0,0.6-0.2,1.1-0.7,1.4c-0.5,0.3-1.1,0.5-2,0.5
		c-1,0-1.9-0.2-2.8-0.6c-0.9-0.4-1.6-0.9-2.1-1.6c-0.5-0.7-0.8-1.4-0.8-2.2c0-0.3,0-0.7,0.1-0.9c0.1-0.3,0.2-0.6,0.4-0.9l-1.9-0.4
		c-0.2,0-0.4-0.1-0.6-0.1c-0.2,0-0.4-0.1-0.6-0.1c-0.2,0-0.3,0-0.4,0.1c-0.1,0.1-0.2,0.1-0.2,0.3c0,0.1-0.1,0.3-0.1,0.6l-0.4-0.1
		l-0.1-2.1v-0.5l9.3,2.1c0.5,0.1,1,0.2,1.2,0.2c0.2,0,0.4,0,0.5-0.1c0.1-0.1,0.2-0.2,0.2-0.3c0-0.2-0.1-0.3-0.2-0.5
		c-0.1-0.2-0.4-0.5-0.8-0.8l0.5-0.5c0.5,0.5,0.9,0.9,1.1,1.3c0.2,0.4,0.3,0.7,0.3,1.1c0,0.3-0.1,0.6-0.3,0.8
		c-0.2,0.2-0.5,0.3-0.9,0.3c-0.3,0-0.6-0.1-1-0.2L777.2,246L777.2,246z M774.2,245.4c-0.4-0.1-0.8-0.1-1.1-0.1
		c-0.4,0-0.8,0.1-0.9,0.3c-0.2,0.2-0.3,0.5-0.3,0.9c0,0.6,0.2,1.1,0.7,1.5c0.5,0.5,1.1,0.8,1.9,1.1c0.8,0.3,1.6,0.4,2.3,0.4
		c0.6,0,1-0.1,1.3-0.2c0.3-0.2,0.4-0.4,0.4-0.8c0-0.2,0-0.3-0.1-0.5c-0.1-0.2-0.2-0.4-0.4-0.6c-0.2-0.2-0.4-0.4-0.6-0.6
		c-0.2-0.2-0.5-0.4-0.7-0.5c-0.2-0.2-0.5-0.3-0.9-0.4c-0.3-0.1-0.7-0.2-1.2-0.3L774.2,245.4"/>
	<path d="M767.9,235.6l0.4,0.1c0,0.2,0.1,0.4,0.2,0.6c0.1,0.1,0.3,0.2,0.5,0.2c0.4,0,0.8-0.1,1.3-0.3l2-0.7l-2-1.5
		c-0.3-0.2-0.5-0.4-0.7-0.6c-0.2-0.1-0.4-0.2-0.5-0.3c-0.1-0.1-0.3-0.1-0.4-0.1c-0.2,0-0.3,0-0.4,0.1c-0.1,0.1-0.2,0.2-0.2,0.5
		l-0.4-0.1v-3.1l0.4,0.1c0,0.2,0.1,0.3,0.2,0.5c0.1,0.2,0.3,0.3,0.5,0.5c0.2,0.2,0.7,0.6,1.3,1.1l3,2.5l3.4-1.2
		c0.5-0.2,0.9-0.3,1.2-0.5c0.3-0.1,0.5-0.2,0.6-0.3c0.1-0.1,0.2-0.1,0.2-0.2c0-0.1,0.1-0.2,0.2-0.4l0.4,0.1v3.4l-0.4-0.1
		c0-0.3-0.1-0.5-0.3-0.6c-0.1-0.1-0.3-0.2-0.5-0.2c-0.3,0-0.7,0.1-1.1,0.2l-2.6,0.9l2.4,1.9c0.4,0.3,0.6,0.5,0.9,0.6
		c0.2,0.1,0.4,0.2,0.6,0.2c0.2,0,0.4-0.1,0.4-0.2c0.1-0.1,0.1-0.2,0.2-0.4l0.4,0.1v3.1l-0.4-0.1c-0.1-0.2-0.1-0.3-0.2-0.5
		c-0.1-0.1-0.3-0.3-0.5-0.6c-0.3-0.2-0.7-0.6-1.4-1.2l-3.2-2.6l-3.4,1.2c-0.6,0.2-1,0.4-1.2,0.5c-0.2,0.1-0.4,0.2-0.5,0.3
		c-0.1,0.1-0.2,0.3-0.2,0.4l-0.4-0.1V235.6"/>
	
		<image style="overflow:visible;" width="189" height="326" xlink:href="E6A94EB9.png"  transform="matrix(0 -2.377558e-02 -2.377557e-02 0 782.8743 230.2633)">
	</image>
	<path d="M801.6,240.8c0.8,0.5,1.4,1,1.7,1.5c0.4,0.5,0.5,1,0.5,1.5c0,0.6-0.2,1.1-0.7,1.4c-0.5,0.3-1.1,0.5-2,0.5
		c-1,0-1.9-0.2-2.8-0.6c-0.9-0.4-1.6-0.9-2.1-1.6c-0.5-0.7-0.8-1.4-0.8-2.2c0-0.3,0-0.7,0.1-0.9c0.1-0.3,0.2-0.6,0.4-0.9l-1.9-0.4
		c-0.2,0-0.4-0.1-0.6-0.1c-0.2,0-0.4-0.1-0.6-0.1c-0.2,0-0.3,0-0.4,0.1c-0.1,0.1-0.2,0.1-0.2,0.3c0,0.1-0.1,0.3-0.1,0.6l-0.4-0.1
		l-0.1-2.1v-0.5l9.3,2.1c0.5,0.1,1,0.2,1.2,0.2c0.2,0,0.4,0,0.5-0.1c0.1-0.1,0.2-0.2,0.2-0.3c0-0.2-0.1-0.3-0.2-0.5
		c-0.1-0.2-0.4-0.5-0.8-0.8l0.5-0.5c0.5,0.5,0.9,0.9,1.1,1.3c0.2,0.4,0.3,0.7,0.3,1.1c0,0.3-0.1,0.6-0.3,0.8
		c-0.2,0.2-0.5,0.3-0.9,0.3c-0.3,0-0.6-0.1-1-0.2L801.6,240.8L801.6,240.8z M798.6,240.3c-0.4-0.1-0.8-0.1-1.1-0.1
		c-0.4,0-0.8,0.1-0.9,0.3c-0.2,0.2-0.3,0.5-0.3,0.9c0,0.6,0.2,1.1,0.7,1.5c0.5,0.5,1.1,0.8,1.9,1.1c0.8,0.3,1.6,0.4,2.3,0.4
		c0.6,0,1-0.1,1.3-0.2c0.3-0.2,0.4-0.4,0.4-0.8c0-0.2,0-0.3-0.1-0.5c-0.1-0.2-0.2-0.4-0.4-0.6c-0.2-0.2-0.4-0.4-0.6-0.6
		c-0.2-0.2-0.5-0.4-0.7-0.5c-0.2-0.2-0.5-0.3-0.9-0.4c-0.3-0.1-0.7-0.2-1.2-0.3L798.6,240.3"/>
	
		<image style="overflow:visible;" width="232" height="428" xlink:href="E6A94EBB.png"  transform="matrix(0 -2.377557e-02 -2.377557e-02 0 803.8206 235.7793)">
	</image>
	<rect x="786.8" y="224.5" class="st41" width="1.1" height="27.3"/>
</g>
<g transform="translate(804.2,308.9998) rotate(-90)">
	<text transform="matrix(1 0 0 1 -90.1335 -743.2455)" class="st21 st0 st23">Potential </text>
</g>
<g>
	<path d="M36,256.7v1c-0.3,0-0.5,0.1-0.7,0.2c-0.2,0.1-0.2,0.3-0.2,0.6c0,0.8,0.9,1.4,2.6,1.7c1.7,0.4,6.6,0.7,14.5,1
		c7.1,0.3,12,0.8,14.6,1.7c2.6,0.8,3.9,1.9,3.9,3.3c0,0.3,0,0.5-0.1,0.8c0,0.2-0.1,0.5-0.2,0.6l-1.9-0.2v-0.9
		c0.4-0.1,0.6-0.2,0.8-0.3c0.1-0.1,0.2-0.3,0.2-0.6c0-0.5-0.9-1-2.6-1.4c-1.7-0.5-6.3-0.8-13.6-1.1c-8-0.3-13.2-0.8-15.7-1.6
		c-2.5-0.7-3.8-1.9-3.8-3.6c0-0.3,0-0.6,0.1-0.8c0-0.2,0.1-0.4,0.2-0.6L36,256.7"/>
	<path d="M42.1,246c0.8,0.5,1.4,1,1.7,1.5c0.4,0.5,0.5,1,0.5,1.5c0,0.6-0.2,1.1-0.7,1.4c-0.5,0.3-1.1,0.5-2,0.5
		c-1,0-1.9-0.2-2.8-0.6c-0.9-0.4-1.6-0.9-2.1-1.6c-0.5-0.7-0.8-1.4-0.8-2.2c0-0.3,0-0.7,0.1-0.9c0.1-0.3,0.2-0.6,0.4-0.9l-1.9-0.4
		c-0.2,0-0.4-0.1-0.6-0.1c-0.2,0-0.4-0.1-0.6-0.1c-0.2,0-0.3,0-0.4,0.1c-0.1,0.1-0.2,0.1-0.2,0.3c0,0.1-0.1,0.3-0.1,0.6l-0.4-0.1
		l-0.1-2.1v-0.5l9.3,2.1c0.5,0.1,1,0.2,1.2,0.2c0.2,0,0.4,0,0.5-0.1c0.1-0.1,0.2-0.2,0.2-0.3c0-0.2-0.1-0.3-0.2-0.5
		c-0.1-0.2-0.4-0.5-0.8-0.8l0.5-0.5c0.5,0.5,0.9,0.9,1.1,1.3c0.2,0.4,0.3,0.7,0.3,1.1c0,0.3-0.1,0.6-0.3,0.8
		c-0.2,0.2-0.5,0.3-0.9,0.3c-0.3,0-0.6-0.1-1-0.2L42.1,246L42.1,246z M39.2,245.4c-0.4-0.1-0.8-0.1-1.1-0.1c-0.4,0-0.8,0.1-0.9,0.3
		c-0.2,0.2-0.3,0.5-0.3,0.9c0,0.6,0.2,1.1,0.7,1.5c0.5,0.5,1.1,0.8,1.9,1.1c0.8,0.3,1.6,0.4,2.3,0.4c0.6,0,1-0.1,1.3-0.2
		c0.3-0.2,0.4-0.4,0.4-0.8c0-0.2,0-0.3-0.1-0.5c-0.1-0.2-0.2-0.4-0.4-0.6c-0.2-0.2-0.4-0.4-0.6-0.6c-0.2-0.2-0.5-0.4-0.7-0.5
		c-0.2-0.2-0.5-0.3-0.9-0.4c-0.3-0.1-0.7-0.2-1.2-0.3L39.2,245.4"/>
	<path d="M32.9,235.6l0.4,0.1c0,0.2,0.1,0.4,0.2,0.6c0.1,0.1,0.3,0.2,0.5,0.2c0.4,0,0.8-0.1,1.3-0.3l2-0.7l-2-1.5
		c-0.3-0.2-0.5-0.4-0.7-0.6c-0.2-0.1-0.4-0.2-0.5-0.3c-0.1-0.1-0.3-0.1-0.4-0.1c-0.2,0-0.3,0-0.4,0.1c-0.1,0.1-0.2,0.2-0.2,0.5
		l-0.4-0.1v-3.1l0.4,0.1c0,0.2,0.1,0.3,0.2,0.5c0.1,0.2,0.3,0.3,0.5,0.5c0.2,0.2,0.7,0.6,1.3,1.1l3,2.5l3.4-1.2
		c0.5-0.2,0.9-0.3,1.2-0.5c0.3-0.1,0.5-0.2,0.6-0.3c0.1-0.1,0.2-0.1,0.2-0.2c0-0.1,0.1-0.2,0.2-0.4l0.4,0.1v3.4l-0.4-0.1
		c0-0.3-0.1-0.5-0.3-0.6c-0.1-0.1-0.3-0.2-0.5-0.2c-0.3,0-0.7,0.1-1.1,0.2l-2.6,0.9l2.4,1.9c0.4,0.3,0.6,0.5,0.9,0.6
		c0.2,0.1,0.4,0.2,0.6,0.2c0.2,0,0.4-0.1,0.4-0.2c0.1-0.1,0.1-0.2,0.2-0.4l0.4,0.1v3.1l-0.4-0.1c-0.1-0.2-0.1-0.3-0.2-0.5
		c-0.1-0.1-0.3-0.3-0.5-0.6c-0.3-0.2-0.7-0.6-1.4-1.2l-3.2-2.6l-3.4,1.2c-0.6,0.2-1,0.4-1.2,0.5c-0.2,0.1-0.4,0.2-0.5,0.3
		c-0.1,0.1-0.2,0.3-0.2,0.4l-0.4-0.1V235.6"/>
	
		<image style="overflow:visible;" width="189" height="326" xlink:href="E6A94EBE.png"  transform="matrix(0 -2.377558e-02 -2.377557e-02 0 47.8507 230.2633)">
	</image>
	<path d="M66.5,240.8c0.8,0.5,1.4,1,1.7,1.5c0.4,0.5,0.5,1,0.5,1.5c0,0.6-0.2,1.1-0.7,1.4c-0.5,0.3-1.1,0.5-2,0.5
		c-1,0-1.9-0.2-2.8-0.6c-0.9-0.4-1.6-0.9-2.1-1.6c-0.5-0.7-0.8-1.4-0.8-2.2c0-0.3,0-0.7,0.1-0.9c0.1-0.3,0.2-0.6,0.4-0.9l-1.9-0.4
		c-0.2,0-0.4-0.1-0.6-0.1c-0.2,0-0.4-0.1-0.6-0.1c-0.2,0-0.3,0-0.4,0.1c-0.1,0.1-0.2,0.1-0.2,0.3c0,0.1-0.1,0.3-0.1,0.6l-0.4-0.1
		l-0.1-2.1v-0.5l9.3,2.1c0.5,0.1,1,0.2,1.2,0.2c0.2,0,0.4,0,0.5-0.1c0.1-0.1,0.2-0.2,0.2-0.3c0-0.2-0.1-0.3-0.2-0.5
		c-0.1-0.2-0.4-0.5-0.8-0.8l0.5-0.5c0.5,0.5,0.9,0.9,1.1,1.3c0.2,0.4,0.3,0.7,0.3,1.1c0,0.3-0.1,0.6-0.3,0.8
		c-0.2,0.2-0.5,0.3-0.9,0.3c-0.3,0-0.6-0.1-1-0.2L66.5,240.8L66.5,240.8z M63.6,240.3c-0.4-0.1-0.8-0.1-1.1-0.1
		c-0.4,0-0.8,0.1-0.9,0.3c-0.2,0.2-0.3,0.5-0.3,0.9c0,0.6,0.2,1.1,0.7,1.5c0.5,0.5,1.1,0.8,1.9,1.1c0.8,0.3,1.6,0.4,2.3,0.4
		c0.6,0,1-0.1,1.3-0.2c0.3-0.2,0.4-0.4,0.4-0.8c0-0.2,0-0.3-0.1-0.5c-0.1-0.2-0.2-0.4-0.4-0.6c-0.2-0.2-0.4-0.4-0.6-0.6
		c-0.2-0.2-0.5-0.4-0.7-0.5c-0.2-0.2-0.5-0.3-0.9-0.4c-0.3-0.1-0.7-0.2-1.2-0.3L63.6,240.3"/>
	
		<image style="overflow:visible;" width="232" height="428" xlink:href="E6A94EBF.png"  transform="matrix(0 -2.377557e-02 -2.377557e-02 0 68.797 235.7793)">
	</image>
	<rect x="51.8" y="224.5" class="st41" width="1.1" height="27.3"/>
</g>
</svg>
